<svg>
	<!-- <symbol id="book" viewBox="0 0 21 26" fill="inherit" xmlns="http://www.w3.org/2000/svg">
        <path d="M2.49088 16.672V16.6906L2.50751 16.6823C2.79856 16.5368 3.09996 16.4329 3.41173 16.3705C3.72376 16.3081 4.04622 16.2769 4.37915 16.2769H5.00474H5.01623V16.2654V2.50237V2.49088H5.00474H4.37915C3.85481 2.49088 3.40875 2.67453 3.04164 3.04164C2.67453 3.40875 2.49088 3.85481 2.49088 4.37915V16.672ZM7.49562 16.2654V16.2769H7.50711H17.5166H17.5281V16.2654V2.50237V2.49088H17.5166H7.50711H7.49562V2.50237V16.2654ZM16.0465 22.5328H16.0639L16.057 22.5168C15.9321 22.2255 15.8333 21.9289 15.7605 21.6272C15.6877 21.3258 15.6513 20.9983 15.6513 20.6446C15.6513 20.3116 15.6825 19.9892 15.7449 19.6771C15.8073 19.3654 15.9112 19.064 16.0567 18.7729L16.065 18.7563H16.0465H4.37915C3.83409 18.7563 3.3827 18.9399 3.02588 19.3072C2.66924 19.6743 2.49088 20.1203 2.49088 20.6446C2.49088 21.1895 2.66916 21.6409 3.026 21.9977C3.38284 22.3546 3.8342 22.5328 4.37915 22.5328H16.0465ZM4.37915 25.0122C3.17272 25.0122 2.14341 24.5859 1.29059 23.7331C0.437769 22.8803 0.0114905 21.851 0.0114905 20.6446V4.37915C0.0114905 3.17272 0.437769 2.14341 1.29059 1.29059C2.14341 0.437769 3.17272 0.0114905 4.37915 0.0114905H20.0075V18.7563C19.4881 18.759 19.0459 18.9426 18.6815 19.3071C18.3144 19.6742 18.1307 20.1202 18.1307 20.6446C18.1307 21.1689 18.3144 21.615 18.6815 21.9821C19.0459 22.3465 19.4881 22.5301 20.0075 22.5328V25.0122H4.37915Z"/>
    </symbol> -->
	<!-- <symbol id="calendar" viewBox="0 0 24 24" xmlns="http://www.w3.org/2000/svg">
		<path stroke="none" d="M0 0h24v24H0z" fill="none"></path>
		<path d="M4 5m0 2a2 2 0 0 1 2 -2h12a2 2 0 0 1 2 2v12a2 2 0 0 1 -2 2h-12a2 2 0 0 1 -2 -2z"></path>
		<path d="M16 3l0 4"></path>
		<path d="M8 3l0 4"></path>
		<path d="M4 11l16 0"></path>
		<path d="M8 15h2v2h-2z"></path>
	</symbol> -->
	<!-- <symbol id="map" viewBox="0 0 24 24" xmlns="http://www.w3.org/2000/svg">
		<path stroke="none" d="M0 0h24v24H0z" fill="none"></path>
		<path d="M9 11a3 3 0 1 0 6 0a3 3 0 0 0 -6 0"></path>
		<path d="M17.657 16.657l-4.243 4.243a2 2 0 0 1 -2.827 0l-4.244 -4.243a8 8 0 1 1 11.314 0z"></path>
	</symbol> -->
	<symbol id="calendar" xmlns="http://www.w3.org/2000/svg" viewBox="0 0 24 24">
		<path stroke="none" d="M0 0h24v24H0z" fill="none"></path>
		<path d="M4 5m0 2a2 2 0 0 1 2 -2h12a2 2 0 0 1 2 2v12a2 2 0 0 1 -2 2h-12a2 2 0 0 1 -2 -2z"></path>
		<path d="M16 3l0 4"></path>
		<path d="M8 3l0 4"></path>
		<path d="M4 11l16 0"></path>
		<path d="M8 15h2v2h-2z"></path>
	</symbol>
	<symbol id="map" xmlns="http://www.w3.org/2000/svg" viewBox="0 0 24 24">
		<path stroke="none" d="M0 0h24v24H0z" fill="none"></path>
		<path d="M9 11a3 3 0 1 0 6 0a3 3 0 0 0 -6 0"></path>
		<path d="M17.657 16.657l-4.243 4.243a2 2 0 0 1 -2.827 0l-4.244 -4.243a8 8 0 1 1 11.314 0z"></path>
	</symbol>
	<symbol id="book" xmlns="http://www.w3.org/2000/svg" viewBox="0 0 24 24">
		<path stroke="none" d="M0 0h24v24H0z" fill="none"></path>
		<path d="M10 19h-6a1 1 0 0 1 -1 -1v-14a1 1 0 0 1 1 -1h6a2 2 0 0 1 2 2a2 2 0 0 1 2 -2h6a1 1 0 0 1 1 1v14a1 1 0 0 1 -1 1h-6a2 2 0 0 0 -2 2a2 2 0 0 0 -2 -2z"></path><path d="M12 5v16"></path><path d="M7 7h1"></path>
		<path d="M7 11h1"></path>
		<path d="M16 7h1"></path>
		<path d="M16 11h1"></path>
		<path d="M16 15h1"></path>
	</symbol>
	<symbol id="stars" xmlns="http://www.w3.org/2000/svg" viewBox="0 0 24 24">
		<path stroke="none" d="M0 0h24v24H0z" fill="none"></path>
		<path d="M17.8 19.817l-2.172 1.138a.392 .392 0 0 1 -.568 -.41l.415 -2.411l-1.757 -1.707a.389 .389 0 0 1 .217 -.665l2.428 -.352l1.086 -2.193a.392 .392 0 0 1 .702 0l1.086 2.193l2.428 .352a.39 .39 0 0 1 .217 .665l-1.757 1.707l.414 2.41a.39 .39 0 0 1 -.567 .411l-2.172 -1.138z"></path>
		<path d="M6.2 19.817l-2.172 1.138a.392 .392 0 0 1 -.568 -.41l.415 -2.411l-1.757 -1.707a.389 .389 0 0 1 .217 -.665l2.428 -.352l1.086 -2.193a.392 .392 0 0 1 .702 0l1.086 2.193l2.428 .352a.39 .39 0 0 1 .217 .665l-1.757 1.707l.414 2.41a.39 .39 0 0 1 -.567 .411l-2.172 -1.138z"></path>
		<path d="M12 9.817l-2.172 1.138a.392 .392 0 0 1 -.568 -.41l.415 -2.411l-1.757 -1.707a.389 .389 0 0 1 .217 -.665l2.428 -.352l1.086 -2.193a.392 .392 0 0 1 .702 0l1.086 2.193l2.428 .352a.39 .39 0 0 1 .217 .665l-1.757 1.707l.414 2.41a.39 .39 0 0 1 -.567 .411l-2.172 -1.138z"></path>
	</symbol>
	<symbol id="gallery" xmlns="http://www.w3.org/2000/svg" viewBox="0 0 24 24">
		<path stroke="none" d="M0 0h24v24H0z" fill="none"></path>
		<path d="M15 8h.01"></path>
		<path d="M3 6a3 3 0 0 1 3 -3h12a3 3 0 0 1 3 3v12a3 3 0 0 1 -3 3h-12a3 3 0 0 1 -3 -3v-12z"></path>
		<path d="M3 16l5 -5c.928 -.893 2.072 -.893 3 0l5 5"></path>
		<path d="M14 14l1 -1c.928 -.893 2.072 -.893 3 0l3 3"></path>
	</symbol>
	<symbol id="comment" xmlns="http://www.w3.org/2000/svg" viewBox="0 0 24 24">
		<path stroke="none" d="M0 0h24v24H0z" fill="none"></path>
		<path d="M8 9h8"></path><path d="M8 13h6"></path>
		<path d="M18 4a3 3 0 0 1 3 3v8a3 3 0 0 1 -3 3h-5l-5 3v-3h-2a3 3 0 0 1 -3 -3v-8a3 3 0 0 1 3 -3h12z"></path>
	</symbol>
	<symbol id="quotation" viewBox="0 0 390 338" xmlns="http://www.w3.org/2000/svg">
		<path d="M74.6496 0C33.4336 0 0 34.3808 0 76.8C0 119.194 33.4336 153.6 74.6496 153.6C149.274 153.6 99.5328 302.054 0 302.054V337.894C177.638 337.92 247.245 0 74.6496 0ZM289.69 0C248.499 0 215.066 34.3808 215.066 76.8C215.066 119.194 248.499 153.6 289.69 153.6C364.339 153.6 314.598 302.054 215.066 302.054V337.894C392.678 337.92 462.285 0 289.69 0Z" />
	</symbol>
	<symbol id="slider" xmlns="http://www.w3.org/2000/svg" viewBox="0 0 24 24">
		<path stroke="none" d="M0 0h24v24H0z" fill="none"></path>
		<path d="M3 4l18 0"></path>
		<path d="M4 4v10a2 2 0 0 0 2 2h12a2 2 0 0 0 2 -2v-10"></path>
		<path d="M12 16l0 4"></path>
		<path d="M9 20l6 0"></path>
		<path d="M8 12l3 -3l2 2l3 -3"></path>
	</symbol>
	<symbol id="close" xmlns="http://www.w3.org/2000/svg" viewBox="0 0 24 24">
		<path stroke="none" d="M0 0h24v24H0z" fill="none"></path>
		<path d="M18 6l-12 12"></path>
		<path d="M6 6l12 12"></path>
	</symbol>
	<symbol id="right" viewBox="0 0 282 512" xmlns="http://www.w3.org/2000/svg">
		<path fill-rule="evenodd" clip-rule="evenodd" d="M9.36972 504.525C19.7377 514.509 36.5057 514.509 46.8481 504.525L266.061 292.966C270.968 288.303 274.875 282.69 277.545 276.47C280.215 270.249 281.592 263.55 281.592 256.781C281.592 250.011 280.215 243.313 277.545 237.092C274.875 230.871 270.968 225.259 266.061 220.595L45.2609 7.47529C40.2498 2.71234 33.6137 0.0352521 26.7003 -0.0122951C19.787 -0.0598424 13.1147 2.52572 8.03852 7.21929C5.52387 9.53712 3.51183 12.3465 2.12698 15.4735C0.74213 18.6004 0.0139593 21.9784 -0.0124391 25.3982C-0.0388376 28.818 0.637098 32.2068 1.97351 35.3548C3.30992 38.5028 5.27836 41.3429 7.75692 43.6993L209.843 238.694C212.299 241.026 214.254 243.833 215.59 246.945C216.926 250.057 217.616 253.407 217.616 256.794C217.616 260.18 216.926 263.531 215.59 266.642C214.254 269.754 212.299 272.561 209.843 274.893L9.36972 468.352C6.91493 470.682 4.96007 473.487 3.6242 476.596C2.28833 479.705 1.59942 483.054 1.59942 486.438C1.59942 489.823 2.28833 493.172 3.6242 496.281C4.96007 499.39 6.91493 502.195 9.36972 504.525Z" />
	</symbol>
	<symbol id="left" viewBox="0 0 282 512" xmlns="http://www.w3.org/2000/svg">
		<path fill-rule="evenodd" clip-rule="evenodd" d="M272.222 7.47523C267.165 2.67272 260.457 -0.00488281 253.483 -0.00488281C246.509 -0.00488281 239.801 2.67272 234.744 7.47523L15.5309 219.034C10.6239 223.697 6.71669 229.31 4.04675 235.53C1.37682 241.751 0 248.45 0 255.219C0 261.989 1.37682 268.687 4.04675 274.908C6.71669 281.129 10.6239 286.741 15.5309 291.405L236.331 504.525C246.571 514.381 263.16 514.509 273.553 504.781C276.07 502.463 278.083 499.653 279.468 496.525C280.852 493.397 281.579 490.017 281.603 486.596C281.627 483.176 280.948 479.786 279.607 476.639C278.266 473.492 276.293 470.654 273.809 468.301L71.7485 273.306C69.293 270.974 67.3377 268.167 66.0015 265.055C64.6654 261.944 63.9763 258.593 63.9763 255.206C63.9763 251.82 64.6654 248.469 66.0015 245.358C67.3377 242.246 69.293 239.439 71.7485 237.107L272.197 43.648C274.651 41.3184 276.606 38.5135 277.942 35.4041C279.278 32.2947 279.967 28.9459 279.967 25.5616C279.967 22.1774 279.278 18.8286 277.942 15.7192C276.606 12.6098 274.677 9.80483 272.222 7.47523Z" />
	</symbol>
</svg>
