<svg>
	<symbol id="calendar" xmlns="http://www.w3.org/2000/svg" viewBox="0 0 24 24">
		<path stroke="none" d="M0 0h24v24H0z" fill="none"></path>
		<path d="M4 5m0 2a2 2 0 0 1 2 -2h12a2 2 0 0 1 2 2v12a2 2 0 0 1 -2 2h-12a2 2 0 0 1 -2 -2z"></path>
		<path d="M16 3l0 4"></path>
		<path d="M8 3l0 4"></path>
		<path d="M4 11l16 0"></path>
		<path d="M8 15h2v2h-2z"></path>
	</symbol>
	<symbol id="map" xmlns="http://www.w3.org/2000/svg" viewBox="0 0 24 24">
		<path stroke="none" d="M0 0h24v24H0z" fill="none"></path>
		<path d="M9 11a3 3 0 1 0 6 0a3 3 0 0 0 -6 0"></path>
		<path d="M17.657 16.657l-4.243 4.243a2 2 0 0 1 -2.827 0l-4.244 -4.243a8 8 0 1 1 11.314 0z"></path>
	</symbol>
	<symbol id="book" xmlns="http://www.w3.org/2000/svg" viewBox="0 0 24 24">
		<path stroke="none" d="M0 0h24v24H0z" fill="none"></path>
		<path d="M10 19h-6a1 1 0 0 1 -1 -1v-14a1 1 0 0 1 1 -1h6a2 2 0 0 1 2 2a2 2 0 0 1 2 -2h6a1 1 0 0 1 1 1v14a1 1 0 0 1 -1 1h-6a2 2 0 0 0 -2 2a2 2 0 0 0 -2 -2z"></path><path d="M12 5v16"></path><path d="M7 7h1"></path>
		<path d="M7 11h1"></path>
		<path d="M16 7h1"></path>
		<path d="M16 11h1"></path>
		<path d="M16 15h1"></path>
	</symbol>
	<symbol id="stars" xmlns="http://www.w3.org/2000/svg" viewBox="0 0 24 24">
		<path stroke="none" d="M0 0h24v24H0z" fill="none"></path>
		<path d="M17.8 19.817l-2.172 1.138a.392 .392 0 0 1 -.568 -.41l.415 -2.411l-1.757 -1.707a.389 .389 0 0 1 .217 -.665l2.428 -.352l1.086 -2.193a.392 .392 0 0 1 .702 0l1.086 2.193l2.428 .352a.39 .39 0 0 1 .217 .665l-1.757 1.707l.414 2.41a.39 .39 0 0 1 -.567 .411l-2.172 -1.138z"></path>
		<path d="M6.2 19.817l-2.172 1.138a.392 .392 0 0 1 -.568 -.41l.415 -2.411l-1.757 -1.707a.389 .389 0 0 1 .217 -.665l2.428 -.352l1.086 -2.193a.392 .392 0 0 1 .702 0l1.086 2.193l2.428 .352a.39 .39 0 0 1 .217 .665l-1.757 1.707l.414 2.41a.39 .39 0 0 1 -.567 .411l-2.172 -1.138z"></path>
		<path d="M12 9.817l-2.172 1.138a.392 .392 0 0 1 -.568 -.41l.415 -2.411l-1.757 -1.707a.389 .389 0 0 1 .217 -.665l2.428 -.352l1.086 -2.193a.392 .392 0 0 1 .702 0l1.086 2.193l2.428 .352a.39 .39 0 0 1 .217 .665l-1.757 1.707l.414 2.41a.39 .39 0 0 1 -.567 .411l-2.172 -1.138z"></path>
	</symbol>
	<symbol id="gallery" xmlns="http://www.w3.org/2000/svg" viewBox="0 0 24 24">
		<path stroke="none" d="M0 0h24v24H0z" fill="none"></path>
		<path d="M15 8h.01"></path>
		<path d="M3 6a3 3 0 0 1 3 -3h12a3 3 0 0 1 3 3v12a3 3 0 0 1 -3 3h-12a3 3 0 0 1 -3 -3v-12z"></path>
		<path d="M3 16l5 -5c.928 -.893 2.072 -.893 3 0l5 5"></path>
		<path d="M14 14l1 -1c.928 -.893 2.072 -.893 3 0l3 3"></path>
	</symbol>
	<symbol id="comment" xmlns="http://www.w3.org/2000/svg" viewBox="0 0 24 24">
		<path stroke="none" d="M0 0h24v24H0z" fill="none"></path>
		<path d="M8 9h8"></path><path d="M8 13h6"></path>
		<path d="M18 4a3 3 0 0 1 3 3v8a3 3 0 0 1 -3 3h-5l-5 3v-3h-2a3 3 0 0 1 -3 -3v-8a3 3 0 0 1 3 -3h12z"></path>
	</symbol>
	<symbol id="quotation" viewBox="0 0 390 338" xmlns="http://www.w3.org/2000/svg">
		<path d="M74.6496 0C33.4336 0 0 34.3808 0 76.8C0 119.194 33.4336 153.6 74.6496 153.6C149.274 153.6 99.5328 302.054 0 302.054V337.894C177.638 337.92 247.245 0 74.6496 0ZM289.69 0C248.499 0 215.066 34.3808 215.066 76.8C215.066 119.194 248.499 153.6 289.69 153.6C364.339 153.6 314.598 302.054 215.066 302.054V337.894C392.678 337.92 462.285 0 289.69 0Z" />
	</symbol>
	<symbol id="slider" xmlns="http://www.w3.org/2000/svg" viewBox="0 0 24 24">
		<path stroke="none" d="M0 0h24v24H0z" fill="none"></path>
		<path d="M3 4l18 0"></path>
		<path d="M4 4v10a2 2 0 0 0 2 2h12a2 2 0 0 0 2 -2v-10"></path>
		<path d="M12 16l0 4"></path>
		<path d="M9 20l6 0"></path>
		<path d="M8 12l3 -3l2 2l3 -3"></path>
	</symbol>
	<symbol id="close" xmlns="http://www.w3.org/2000/svg" viewBox="0 0 24 24">
		<path stroke="none" d="M0 0h24v24H0z" fill="none"></path>
		<path d="M18 6l-12 12"></path>
		<path d="M6 6l12 12"></path>
	</symbol>
	<symbol id="right" viewBox="0 0 282 512" xmlns="http://www.w3.org/2000/svg">
		<path fill-rule="evenodd" clip-rule="evenodd" d="M9.36972 504.525C19.7377 514.509 36.5057 514.509 46.8481 504.525L266.061 292.966C270.968 288.303 274.875 282.69 277.545 276.47C280.215 270.249 281.592 263.55 281.592 256.781C281.592 250.011 280.215 243.313 277.545 237.092C274.875 230.871 270.968 225.259 266.061 220.595L45.2609 7.47529C40.2498 2.71234 33.6137 0.0352521 26.7003 -0.0122951C19.787 -0.0598424 13.1147 2.52572 8.03852 7.21929C5.52387 9.53712 3.51183 12.3465 2.12698 15.4735C0.74213 18.6004 0.0139593 21.9784 -0.0124391 25.3982C-0.0388376 28.818 0.637098 32.2068 1.97351 35.3548C3.30992 38.5028 5.27836 41.3429 7.75692 43.6993L209.843 238.694C212.299 241.026 214.254 243.833 215.59 246.945C216.926 250.057 217.616 253.407 217.616 256.794C217.616 260.18 216.926 263.531 215.59 266.642C214.254 269.754 212.299 272.561 209.843 274.893L9.36972 468.352C6.91493 470.682 4.96007 473.487 3.6242 476.596C2.28833 479.705 1.59942 483.054 1.59942 486.438C1.59942 489.823 2.28833 493.172 3.6242 496.281C4.96007 499.39 6.91493 502.195 9.36972 504.525Z" />
	</symbol>
	<symbol id="left" viewBox="0 0 282 512" xmlns="http://www.w3.org/2000/svg">
		<path fill-rule="evenodd" clip-rule="evenodd" d="M272.222 7.47523C267.165 2.67272 260.457 -0.00488281 253.483 -0.00488281C246.509 -0.00488281 239.801 2.67272 234.744 7.47523L15.5309 219.034C10.6239 223.697 6.71669 229.31 4.04675 235.53C1.37682 241.751 0 248.45 0 255.219C0 261.989 1.37682 268.687 4.04675 274.908C6.71669 281.129 10.6239 286.741 15.5309 291.405L236.331 504.525C246.571 514.381 263.16 514.509 273.553 504.781C276.07 502.463 278.083 499.653 279.468 496.525C280.852 493.397 281.579 490.017 281.603 486.596C281.627 483.176 280.948 479.786 279.607 476.639C278.266 473.492 276.293 470.654 273.809 468.301L71.7485 273.306C69.293 270.974 67.3377 268.167 66.0015 265.055C64.6654 261.944 63.9763 258.593 63.9763 255.206C63.9763 251.82 64.6654 248.469 66.0015 245.358C67.3377 242.246 69.293 239.439 71.7485 237.107L272.197 43.648C274.651 41.3184 276.606 38.5135 277.942 35.4041C279.278 32.2947 279.967 28.9459 279.967 25.5616C279.967 22.1774 279.278 18.8286 277.942 15.7192C276.606 12.6098 274.677 9.80483 272.222 7.47523Z" />
	</symbol>
	<symbol id="circle" viewBox="0 0 120 120" version="1.1" xmlns="http://www.w3.org/2000/svg">
		<circle cx="60" cy="60" r="50"/>
	</symbol>
	<symbol id="movie" xmlns="http://www.w3.org/2000/svg" viewBox="0 0 24 24">
		<path stroke="none" d="M0 0h24v24H0z" fill="none"></path>
		<path d="M4 4m0 2a2 2 0 0 1 2 -2h12a2 2 0 0 1 2 2v12a2 2 0 0 1 -2 2h-12a2 2 0 0 1 -2 -2z"></path>
		<path d="M8 4l0 16"></path><path d="M16 4l0 16"></path>
		<path d="M4 8l4 0"></path><path d="M4 16l4 0"></path>
		<path d="M4 12l16 0"></path><path d="M16 8l4 0"></path>
		<path d="M16 16l4 0"></path>
	</symbol>
	<symbol id="plain" xmlns="http://www.w3.org/2000/svg" viewBox="0 0 24 24">
		<path stroke="none" d="M0 0h24v24H0z" fill="none"></path>
		<path d="M14.5 6.5l3 -2.9a2.05 2.05 0 0 1 2.9 2.9l-2.9 3l2.5 7.5l-2.5 2.55l-3.5 -6.55l-3 3v3l-2 2l-1.5 -4.5l-4.5 -1.5l2 -2h3l3 -3l-6.5 -3.5l2.5 -2.5l7.5 2.5z"></path>
	</symbol>
	<symbol id="paint" xmlns="http://www.w3.org/2000/svg" viewBox="0 0 24 24">
		<path stroke="none" d="M0 0h24v24H0z" fill="none"></path>
		<path d="M12 21a9 9 0 0 1 0 -18c4.97 0 9 3.582 9 8c0 1.06 -.474 2.078 -1.318 2.828c-.844 .75 -1.989 1.172 -3.182 1.172h-2.5a2 2 0 0 0 -1 3.75a1.3 1.3 0 0 1 -1 2.25"></path><path d="M8.5 10.5m-1 0a1 1 0 1 0 2 0a1 1 0 1 0 -2 0"></path><path d="M12.5 7.5m-1 0a1 1 0 1 0 2 0a1 1 0 1 0 -2 0"></path>
		<path d="M16.5 10.5m-1 0a1 1 0 1 0 2 0a1 1 0 1 0 -2 0"></path>
	</symbol>
	<symbol id="info" xmlns="http://www.w3.org/2000/svg" viewBox="0 0 24 24">
		<path stroke="none" d="M0 0h24v24H0z" fill="none"></path>
		<path d="M12 9h.01"></path>
		<path d="M11 12h1v4h1"></path><path d="M12 3c7.2 0 9 1.8 9 9s-1.8 9 -9 9s-9 -1.8 -9 -9s1.8 -9 9 -9z"></path>
	</symbol>
</svg>
