<svg>
	<symbol id="book" viewBox="0 0 21 26" fill="inherit" xmlns="http://www.w3.org/2000/svg">
        <path d="M2.49088 16.672V16.6906L2.50751 16.6823C2.79856 16.5368 3.09996 16.4329 3.41173 16.3705C3.72376 16.3081 4.04622 16.2769 4.37915 16.2769H5.00474H5.01623V16.2654V2.50237V2.49088H5.00474H4.37915C3.85481 2.49088 3.40875 2.67453 3.04164 3.04164C2.67453 3.40875 2.49088 3.85481 2.49088 4.37915V16.672ZM7.49562 16.2654V16.2769H7.50711H17.5166H17.5281V16.2654V2.50237V2.49088H17.5166H7.50711H7.49562V2.50237V16.2654ZM16.0465 22.5328H16.0639L16.057 22.5168C15.9321 22.2255 15.8333 21.9289 15.7605 21.6272C15.6877 21.3258 15.6513 20.9983 15.6513 20.6446C15.6513 20.3116 15.6825 19.9892 15.7449 19.6771C15.8073 19.3654 15.9112 19.064 16.0567 18.7729L16.065 18.7563H16.0465H4.37915C3.83409 18.7563 3.3827 18.9399 3.02588 19.3072C2.66924 19.6743 2.49088 20.1203 2.49088 20.6446C2.49088 21.1895 2.66916 21.6409 3.026 21.9977C3.38284 22.3546 3.8342 22.5328 4.37915 22.5328H16.0465ZM4.37915 25.0122C3.17272 25.0122 2.14341 24.5859 1.29059 23.7331C0.437769 22.8803 0.0114905 21.851 0.0114905 20.6446V4.37915C0.0114905 3.17272 0.437769 2.14341 1.29059 1.29059C2.14341 0.437769 3.17272 0.0114905 4.37915 0.0114905H20.0075V18.7563C19.4881 18.759 19.0459 18.9426 18.6815 19.3071C18.3144 19.6742 18.1307 20.1202 18.1307 20.6446C18.1307 21.1689 18.3144 21.615 18.6815 21.9821C19.0459 22.3465 19.4881 22.5301 20.0075 22.5328V25.0122H4.37915Z"/>
    </symbol>
	<symbol id="calendar" viewBox="0 0 24 24" xmlns="http://www.w3.org/2000/svg">
		<path stroke="none" d="M0 0h24v24H0z" fill="none"></path>
		<path d="M4 5m0 2a2 2 0 0 1 2 -2h12a2 2 0 0 1 2 2v12a2 2 0 0 1 -2 2h-12a2 2 0 0 1 -2 -2z"></path>
		<path d="M16 3l0 4"></path>
		<path d="M8 3l0 4"></path>
		<path d="M4 11l16 0"></path>
		<path d="M8 15h2v2h-2z"></path>
	</symbol>
	<symbol id="map" viewBox="0 0 24 24" xmlns="http://www.w3.org/2000/svg">
		<path stroke="none" d="M0 0h24v24H0z" fill="none"></path>
		<path d="M9 11a3 3 0 1 0 6 0a3 3 0 0 0 -6 0"></path>
		<path d="M17.657 16.657l-4.243 4.243a2 2 0 0 1 -2.827 0l-4.244 -4.243a8 8 0 1 1 11.314 0z"></path>
	</symbol>
</svg>
